<svg viewBox="0 0 400 120" xmlns="http://www.w3.org/2000/svg">
    <g fill="none" fill-rule="evenodd">
        <path fill="currentColor" d="M357.29 34.273c0-4.478 4.269-8.703 8.785-8.703.971 0 1.753.778 1.753 1.74 0 .961-.782 1.739-1.753 1.739-2.566 0-5.272 2.688-5.272 5.224 0 .961-.781 1.739-1.753 1.739a1.75 1.75 0 0 1-1.76-1.74zm19.322 38.306c-.972 0-1.753.778-1.753 1.74 0 .96.781 1.739 1.753 1.739 2.56 0 5.272 2.687 5.272 5.223 0 .962.781 1.74 1.753 1.74a1.75 1.75 0 0 0 1.76-1.74c0-4.47-4.275-8.702-8.785-8.702zm7.025-20.895c-.972 0-1.753.778-1.753 1.739 0 2.542-2.712 5.224-5.272 5.224-.972 0-1.753.784-1.753 1.739 0 .961.781 1.745 1.753 1.745 4.51 0 8.784-4.23 8.784-8.708a1.75 1.75 0 0 0-1.76-1.74zm-17.562 6.963c.971 0 1.753-.778 1.753-1.74 0-.96-.782-1.739-1.753-1.739-2.566 0-5.272-2.688-5.272-5.224 0-.96-.781-1.745-1.753-1.745-.972 0-1.76.784-1.76 1.745 0 4.472 4.269 8.703 8.785 8.703zm-7.025 20.895c.972 0 1.753-.778 1.753-1.745 0-2.536 2.706-5.218 5.272-5.218.971 0 1.753-.784 1.753-1.745 0-.962-.782-1.74-1.753-1.74-4.516 0-8.785 4.231-8.785 8.703a1.75 1.75 0 0 0 1.76 1.745zm21.074-38.306c-2.56 0-5.265-2.682-5.265-5.224a1.75 1.75 0 0 0-1.76-1.74 1.75 1.75 0 0 0-1.759 1.74c0 4.478 4.268 8.709 8.784 8.709.972 0 1.76-.785 1.76-1.746 0-.955-.788-1.74-1.76-1.74zm-15.809 47.009c0 .96.788 1.745 1.76 1.745 2.56 0 5.265 2.682 5.265 5.218a1.75 1.75 0 0 0 1.76 1.745 1.75 1.75 0 0 0 1.759-1.745c0-4.472-4.275-8.703-8.784-8.703a1.75 1.75 0 0 0-1.76 1.74zm30.97-13.503a12.064 12.064 0 0 0 4.161-9.126c0-3.731-1.67-7.153-4.541-9.455a10.262 10.262 0 0 0 1.029-4.477c0-3.593-1.906-6.907-4.904-8.791a10.242 10.242 0 0 0 1.391-5.142c0-4.49-2.877-8.392-7.05-9.834.013-.209.025-.405.025-.607 0-5.762-4.725-10.448-10.537-10.448-1.423 0-2.801.284-4.09.835-1.512-4.535-5.857-7.798-10.843-7.798-7.393 0-10.677 6.609-11.382 10.106-.012.05.007.108 0 .17-.006.058-.032.108-.032.165v81.73c-.4 4.945-4.636 8.81-9.66 8.81-5.012 0-9.236-3.878-9.617-8.836-.07-.91-.889-1.612-1.804-1.612a1.75 1.75 0 0 0-1.397.689c-1.366 1.777-3.41 2.795-5.627 2.795-3.875 0-7.025-3.124-7.025-6.963 0-1.581.552-3.092 1.607-4.37a1.726 1.726 0 0 0 .127-2.024 1.736 1.736 0 0 0-1.887-.771 7.298 7.298 0 0 1-1.607.202c-3.874 0-7.025-3.124-7.025-6.97 0-2.87 1.842-5.483 4.573-6.494a1.748 1.748 0 0 0 1.144-1.53 1.76 1.76 0 0 0-.947-1.652c-2.94-1.505-4.77-4.465-4.77-7.728 0-3.074 1.595-5.863 4.262-7.456a1.73 1.73 0 0 0 .534-2.492 6.863 6.863 0 0 1-1.283-3.984c0-2.897 1.86-5.509 4.624-6.514a1.734 1.734 0 0 0 .705-2.795c-1.169-1.297-1.817-2.935-1.817-4.624 0-3.37 2.44-6.242 5.8-6.836a1.75 1.75 0 0 0 1.155-.747c.267-.392.356-.879.254-1.34a6.975 6.975 0 0 1-.178-1.518c0-3.84 3.15-6.97 7.019-6.97 1.524 0 2.992.506 4.243 1.461a1.78 1.78 0 0 0 1.785.209c.584-.26.984-.816 1.035-1.448.337-4.029 3.792-7.185 7.87-7.185 1.956 0 3.576.626 4.941 1.91a1.767 1.767 0 0 0 2.484-.076 1.723 1.723 0 0 0-.07-2.46c-2.026-1.897-4.497-2.852-7.355-2.852-4.986 0-9.33 3.263-10.843 7.798a10.374 10.374 0 0 0-4.09-.835c-5.812 0-10.537 4.686-10.537 10.448 0 .202.006.398.019.607-4.167 1.442-7.044 5.344-7.044 9.834 0 1.809.482 3.573 1.39 5.142-3.004 1.884-4.903 5.198-4.903 8.79 0 1.563.35 3.087 1.03 4.478a12.037 12.037 0 0 0-4.542 9.455c0 3.554 1.543 6.85 4.16 9.126-2.566 1.948-4.16 5.003-4.16 8.279 0 5.388 4.135 9.834 9.42 10.39a10.105 10.105 0 0 0-.636 3.542c0 5.762 4.726 10.448 10.538 10.448 2.184 0 4.255-.658 6.002-1.86 1.785 5.142 6.739 8.823 12.443 8.823 6.86 0 12.646-5.3 13.167-12.054 0-.025-.013-.044-.013-.07 0-.025.013-.038.013-.063v-81.64c.26-1.07 1.994-7.16 7.907-7.16 4.078 0 7.533 3.156 7.864 7.185a1.764 1.764 0 0 0 2.82 1.24c1.257-.956 2.725-1.462 4.249-1.462 3.868 0 7.025 3.13 7.025 6.97 0 .474-.064.974-.184 1.518-.102.461-.013.948.254 1.34a1.75 1.75 0 0 0 1.156.747c3.36.594 5.799 3.465 5.799 6.836 0 1.689-.648 3.327-1.817 4.623a1.734 1.734 0 0 0 .705 2.796c2.763 1.005 4.624 3.617 4.624 6.514a6.863 6.863 0 0 1-1.283 3.984c-.28.398-.38.885-.28 1.36.102.474.395.885.814 1.132 2.667 1.593 4.262 4.382 4.262 7.456 0 3.263-1.83 6.223-4.77 7.728-.61.317-.985.968-.94 1.651a1.73 1.73 0 0 0 1.137 1.53c2.73 1.012 4.573 3.624 4.573 6.496 0 3.845-3.15 6.969-7.025 6.969-.496 0-1.016-.07-1.607-.202a1.74 1.74 0 0 0-1.887.771c-.4.633-.349 1.442.127 2.024 1.055 1.278 1.607 2.789 1.607 4.37 0 3.839-3.15 6.963-7.025 6.963-2.216 0-4.268-1.03-5.62-2.833a1.77 1.77 0 0 0-1.957-.607c-.26.082-.49.221-.673.405-.324.29-.54.702-.578 1.163-.381 4.958-4.605 8.835-9.617 8.835a9.667 9.667 0 0 1-6.021-2.074 1.763 1.763 0 0 0-2.47.285 1.734 1.734 0 0 0 .285 2.44 13.36 13.36 0 0 0 8.206 2.834c5.704 0 10.665-3.687 12.45-8.835a10.456 10.456 0 0 0 5.995 1.872c5.812 0 10.538-4.686 10.538-10.448 0-1.227-.216-2.416-.635-3.541 5.284-.557 9.42-5.003 9.42-10.391 0-3.276-1.595-6.331-4.161-8.279zm-69.613-33.506v10.77a5.205 5.205 0 0 1 3.189 3.162h4.166a5.24 5.24 0 0 1 4.942-3.484c2.909 0 5.272 2.346 5.272 5.224 0 2.27-1.474 4.18-3.513 4.9v21.535c2.039.721 3.513 2.637 3.513 4.902 0 2.27-1.474 4.18-3.513 4.907v5.54c0 .962-.787 1.74-1.76 1.74a1.743 1.743 0 0 1-1.752-1.74v-5.546a5.203 5.203 0 0 1-3.43-4.098l-6.593-6.533c-.007-.007-.007-.013-.013-.02a5.21 5.21 0 0 1-2.261.526c-2.903 0-5.266-2.34-5.266-5.224 0-2.878 2.363-5.218 5.266-5.218 2.909 0 5.272 2.34 5.272 5.218 0 .81-.203 1.562-.534 2.245.007.006.013.006.02.006l5.1 5.066a5.307 5.307 0 0 1 2.439-1.77V61.808a5.22 5.22 0 0 1-3.189-3.162h-4.166a5.25 5.25 0 0 1-4.942 3.484c-2.903 0-5.266-2.346-5.266-5.223 0-2.27 1.468-4.18 3.513-4.902v-12.51c0-.96.781-1.745 1.753-1.745h9.108a5.21 5.21 0 0 1 3.189-3.156V29.05c0-.961.781-1.74 1.753-1.74.972 0 1.76.779 1.76 1.74v5.546c2.038.721 3.512 2.631 3.512 4.902 0 2.877-2.363 5.224-5.272 5.224a5.25 5.25 0 0 1-4.942-3.485h-7.355zm10.544-1.74c0 .962.787 1.74 1.753 1.74a1.75 1.75 0 0 0 1.76-1.74c0-.96-.788-1.745-1.76-1.745-.966 0-1.753.784-1.753 1.746zm-10.544 38.3c0-.954-.788-1.738-1.753-1.738-.972 0-1.753.784-1.753 1.739 0 .961.781 1.745 1.753 1.745.965 0 1.753-.784 1.753-1.745zm0-20.888c0-.962-.788-1.74-1.753-1.74-.972 0-1.753.778-1.753 1.74 0 .954.781 1.739 1.753 1.739.965 0 1.753-.785 1.753-1.74zm14.056 31.337c0-.955-.787-1.74-1.76-1.74-.965 0-1.752.785-1.752 1.74 0 .96.787 1.745 1.753 1.745.972 0 1.76-.784 1.76-1.745zm-3.512-31.337c0 .954.787 1.739 1.753 1.739.972 0 1.76-.785 1.76-1.74a1.75 1.75 0 0 0-1.76-1.739c-.966 0-1.753.778-1.753 1.74z" />
        <path stroke="currentColor" stroke-width="3.252" d="M198.304 102.136l-16.895 16.07a1.056 1.056 0 0 1-1.486-.031 1.055 1.055 0 0 1-.286-.721v-15.318h-1.988c-9.33 0-16.89-7.95-16.89-17.758V38.406c0-9.803 7.56-17.759 16.89-17.759h64.583c9.324 0 16.889 7.956 16.889 17.76v45.97c0 9.81-7.565 17.76-16.889 17.76h-43.928z" />
        <path fill="currentColor" d="M241.855 44.612a1.57 1.57 0 0 1 1.569 1.562c0 .866-.706 1.562-1.57 1.562h-65.923a1.565 1.565 0 0 1-1.569-1.562c0-.86.705-1.562 1.57-1.562h65.923zm-29.599 10.419c.864 0 1.569.702 1.569 1.562 0 .866-.705 1.562-1.569 1.562h-36.325a1.565 1.565 0 0 1-1.569-1.562c0-.86.705-1.562 1.57-1.562h36.324zM231.99 65.45c.864 0 1.57.702 1.57 1.562 0 .867-.706 1.562-1.57 1.562h-56.059a1.565 1.565 0 0 1-1.569-1.562c0-.86.705-1.562 1.57-1.562h56.059zm-9.87 10.419c.87 0 1.575.696 1.575 1.562a1.57 1.57 0 0 1-1.575 1.562h-46.189a1.569 1.569 0 0 1-1.569-1.562c0-.866.705-1.562 1.57-1.562h46.188z" />
        <path stroke="currentColor" stroke-width="3.252" d="M60.592 23.402c-5.977 0-10.83-4.844-10.83-10.82 0-5.984 4.853-10.828 10.83-10.828S71.415 6.598 71.415 12.58c0 5.977-4.846 10.821-10.823 10.821zM13.997 86.108C7.004 84.596 1.763 78.373 1.763 70.929c0-7.45 5.24-13.667 12.234-15.178v-6.938c0-8.835 7.164-16 16.006-16h29.18v-9.411h2.82v9.41h29.179c8.841 0 16 7.166 16 16.001v7.172c6.523 1.84 11.299 7.836 11.299 14.944 0 7.109-4.776 13.098-11.3 14.945v4.344c0 8.842-7.158 16.001-16 16.001H30.004c-8.842 0-16.006-7.16-16.006-16v-4.111z" />
        <path stroke="currentColor" stroke-width="3.252" d="M51.945 83.847h16.35c.946 0 1.708 1.053 1.708 2.36 0 1.3-.762 2.352-1.709 2.352H51.945c-.94 0-1.708-1.053-1.708-2.351 0-1.308.768-2.36 1.708-2.36zM37.214 53.99c5.12 0 9.267 4.142 9.267 9.246 0 5.11-4.148 9.252-9.267 9.252-5.12 0-9.274-4.142-9.274-9.252 0-5.104 4.154-9.246 9.274-9.246zm45.813 0c5.12 0 9.274 4.142 9.274 9.246 0 5.11-4.154 9.252-9.274 9.252-5.119 0-9.267-4.142-9.267-9.252 0-5.104 4.148-9.246 9.267-9.246z" />
    </g>
</svg>
