<svg width="200" height="54" xmlns="http://www.w3.org/2000/svg"><g fill="#4121F1" fill-rule="evenodd"><path d="M193.105 20.689c0-.97-.348-1.729-1.044-2.272-.696-.543-1.92-1.101-3.668-1.682-1.749-.58-3.177-1.142-4.288-1.685-3.613-1.756-5.42-4.163-5.42-7.228 0-1.527.452-2.876 1.352-4.043.9-1.166 2.173-2.073 3.818-2.725 1.648-.648 3.497-.972 5.554-.972 2.002 0 3.8.352 5.393 1.059 1.586.706 2.822 1.713 3.704 3.018.882 1.306 1.319 2.796 1.319 4.475h-6.702c0-1.123-.345-1.994-1.044-2.61-.692-.618-1.635-.93-2.822-.93-1.2 0-2.149.262-2.845.787-.695.525-1.043 1.188-1.043 1.997 0 .707.384 1.346 1.15 1.92.766.574 2.112 1.17 4.038 1.78 1.928.611 3.51 1.269 4.751 1.975 3.012 1.72 4.517 4.083 4.517 7.099 0 2.41-.919 4.302-2.756 5.678-1.84 1.374-4.36 2.062-7.565 2.062-2.258 0-4.306-.401-6.134-1.204-1.834-.799-3.214-1.898-4.138-3.29-.928-1.395-1.389-3-1.389-4.817h6.741c0 1.475.385 2.564 1.157 3.265.775.7 2.026 1.05 3.763 1.05 1.114 0 1.99-.238 2.636-.71.644-.473.965-1.14.965-1.997zm-16.91-15.101h-8.368v22.424h-6.72V5.588h-8.218V.458h23.306v5.13zm-30.563 8.061c0-2.737-.46-4.814-1.388-6.234-.925-1.42-2.25-2.13-3.97-2.13-3.373 0-5.155 2.497-5.344 7.494l-.018 2.024c0 2.7.451 4.778 1.358 6.225.906 1.454 2.252 2.18 4.04 2.18 1.697 0 3.006-.714 3.925-2.14.918-1.425 1.385-3.475 1.397-6.15v-1.269zm6.84 1.154c0 2.688-.504 5.065-1.518 7.136-1.007 2.067-2.438 3.66-4.296 4.777-1.859 1.117-3.974 1.676-6.348 1.676-2.374 0-4.483-.54-6.32-1.617-1.84-1.08-3.271-2.62-4.297-4.63-1.028-2.006-1.568-4.308-1.62-6.906v-1.553c0-2.7.5-5.08 1.504-7.141 1.001-2.065 2.435-3.657 4.31-4.78C135.753.64 137.883.081 140.272.081c2.36 0 4.465.553 6.318 1.664 1.849 1.11 3.29 2.69 4.318 4.74 1.028 2.05 1.55 4.401 1.562 7.049v1.268zm-42.19-2.857h3.506c1.467-.013 2.514-.278 3.14-.794.625-.518.94-1.28.94-2.29 0-1.16-.342-1.996-1.016-2.509-.678-.509-1.767-.765-3.278-.765h-3.293v6.358zm0 4.354v6.605h4.406c1.211 0 2.145-.275 2.795-.824.653-.55.977-1.324.977-2.318 0-2.296-1.157-3.45-3.467-3.463h-4.712zm-6.72 11.712V.46h10.012c3.589 0 6.32.65 8.188 1.95 1.87 1.3 2.807 3.185 2.807 5.657 0 1.426-.332 2.645-.995 3.654-.665 1.01-1.641 1.753-2.932 2.232 1.455.38 2.575 1.086 3.354 2.12.775 1.034 1.165 2.296 1.165 3.783 0 2.7-.863 4.729-2.594 6.086-1.73 1.355-4.293 2.047-7.69 2.071h-11.316zm-2.836-22.424h-8.368v22.424h-6.723V5.588h-8.212V.458h23.303v5.13zM62.66 17.735h5.994l-3.01-9.555-2.984 9.555zm7.602 5.133h-9.21l-1.611 5.144h-7.181L62.485.46h6.32l10.303 27.553h-7.22l-1.627-5.144zm-20.434 5.144h-6.684V16.507h-9.9v11.505h-6.722V.46h6.723v10.937h9.9V.46h6.683v27.553zm-26.483-9.33c-.089 1.92-.614 3.615-1.572 5.084-.955 1.469-2.298 2.608-4.031 3.416-1.727.806-3.705 1.21-5.924 1.21-3.665 0-6.552-1.179-8.657-3.54C1.05 22.494 0 19.162 0 14.859v-1.361c0-2.7.473-5.061 1.425-7.086.953-2.025 2.32-3.592 4.108-4.694C7.322.613 9.391.06 11.738.06c3.384 0 6.1.882 8.157 2.641 2.057 1.76 3.226 4.185 3.507 7.275h-6.705c-.049-1.676-.479-2.883-1.282-3.614-.802-.732-2.032-1.096-3.677-1.096-1.672 0-2.899.617-3.677 1.855-.778 1.234-1.184 3.21-1.224 5.922v1.948c0 2.94.372 5.042 1.12 6.302.745 1.262 2.032 1.895 3.86 1.895 1.545 0 2.723-.362 3.54-1.08.815-.72 1.252-1.862 1.304-3.426h6.683zM195.54 53.07h3.791V35.107h-3.792v17.961zm-12.895-6.699h4.603l-2.313-6.721-2.29 6.721zm5.627 2.998h-6.65l-1.266 3.7h-4.03l6.85-17.961h3.514l6.89 17.961h-4.03l-1.278-3.7zm-29.72-9.831c0 .615.37 1.393 1.11 2.331l.972-.63c.497-.314.845-.615 1.03-.91.193-.3.287-.652.287-1.062 0-.414-.155-.77-.47-1.074-.31-.305-.71-.458-1.2-.458-.521 0-.942.166-1.256.494-.317.329-.472.766-.472 1.309zm1.339 10.917c.875 0 1.707-.239 2.487-.715l-3.627-4.098-.266.187c-.75.624-1.124 1.36-1.124 2.207 0 .715.234 1.3.7 1.746.47.446 1.08.673 1.83.673zm-6.194-2.22c0-.832.238-1.601.713-2.307.476-.709 1.35-1.493 2.625-2.358-.55-.715-.982-1.387-1.29-2.015a4.365 4.365 0 0 1-.47-1.969c0-1.399.455-2.536 1.36-3.41.909-.875 2.125-1.315 3.661-1.315 1.372 0 2.5.4 3.38 1.197.878.8 1.32 1.791 1.32 2.985 0 1.433-.74 2.693-2.225 3.788l-1.417.998 3.173 3.604c.5-.956.75-2.008.75-3.16h3.109c0 2.337-.555 4.227-1.658 5.675l2.755 3.121h-4.145l-.945-1.061c-1.36.871-2.917 1.308-4.682 1.308-1.817 0-3.277-.467-4.371-1.399-1.098-.935-1.643-2.162-1.643-3.682zm-8.776 2.563c-.683.8-1.646 1.418-2.893 1.858-1.25.44-2.63.66-4.148.66-1.591 0-2.987-.337-4.191-1.019-1.198-.678-2.128-1.661-2.78-2.952-.653-1.29-.988-2.81-1.006-4.554V43.57c0-1.791.31-3.344.93-4.656.621-1.312 1.514-2.316 2.682-3.01 1.167-.696 2.533-1.043 4.1-1.043 2.182 0 3.889.51 5.12 1.526 1.229 1.016 1.96 2.494 2.186 4.433h-3.691c-.168-1.026-.54-1.78-1.116-2.256-.58-.477-1.372-.718-2.384-.718-1.289 0-2.274.474-2.944 1.42-.677.944-1.018 2.35-1.024 4.22v1.145c0 1.885.365 3.309 1.097 4.27.732.96 1.808 1.442 3.225 1.442 1.423 0 2.439-.295 3.045-.887V46.36h-3.45v-2.726h7.242v7.165zM127.05 53.07h-3.795l-7.383-11.818v11.818h-3.795V35.108h3.795l7.395 11.842V35.108h3.783v17.961zm-22.277 0h3.792V35.108h-3.792v17.961zm-3.313-2.27c-.683.799-1.646 1.417-2.893 1.857-1.246.44-2.63.66-4.148.66-1.594 0-2.99-.337-4.191-1.019-1.201-.678-2.128-1.661-2.783-2.952-.65-1.29-.985-2.81-1.003-4.554V43.57c0-1.791.31-3.344.93-4.656.618-1.312 1.511-2.316 2.679-3.01 1.167-.696 2.536-1.043 4.103-1.043 2.182 0 3.89.51 5.117 1.526 1.235 1.016 1.964 2.494 2.19 4.433h-3.692c-.171-1.026-.543-1.78-1.119-2.256-.58-.477-1.372-.718-2.38-.718-1.293 0-2.271.474-2.948 1.42-.674.944-1.015 2.35-1.024 4.22v1.145c0 1.885.365 3.309 1.1 4.27.735.96 1.808 1.442 3.225 1.442 1.424 0 2.439-.295 3.045-.887V46.36h-3.45v-2.726h7.242v7.165zM74.508 46.37h4.603l-2.314-6.721-2.289 6.721zm5.627 2.998h-6.651l-1.265 3.7h-4.03l6.85-17.961h3.514l6.889 17.961h-4.03l-1.277-3.7zM63.37 48.356c0-.697-.25-1.234-.756-1.608-.506-.374-1.417-.769-2.734-1.185-1.31-.416-2.353-.823-3.122-1.227-2.09-1.1-3.133-2.588-3.133-4.454 0-.968.28-1.837.841-2.597.561-.76 1.363-1.354 2.414-1.782 1.049-.428 2.229-.642 3.533-.642 1.314 0 2.488.232 3.515.7 1.027.464 1.826 1.118 2.396 1.966.567.847.853 1.809.853 2.886h-3.792c0-.82-.265-1.463-.798-1.918-.53-.459-1.278-.685-2.235-.685-.93 0-1.649.19-2.164.573-.512.383-.771.887-.771 1.51 0 .586.299 1.074.905 1.47.6.395 1.488.765 2.661 1.11 2.158.633 3.728 1.42 4.716 2.354.984.938 1.478 2.108 1.478 3.508 0 1.553-.603 2.771-1.81 3.655-1.201.883-2.826 1.326-4.865 1.326-1.415 0-2.704-.253-3.868-.76-1.165-.503-2.052-1.197-2.662-2.077-.61-.88-.917-1.9-.917-3.058h3.804c0 1.981 1.216 2.973 3.643 2.973.899 0 1.606-.18 2.112-.54.506-.355.756-.856.756-1.498zm-15.915 0c0-.697-.253-1.234-.759-1.608-.506-.374-1.417-.769-2.728-1.185-1.316-.416-2.359-.823-3.124-1.227-2.088-1.1-3.134-2.588-3.134-4.454 0-.968.28-1.837.839-2.597.56-.76 1.368-1.354 2.414-1.782 1.051-.428 2.228-.642 3.536-.642 1.313 0 2.484.232 3.514.7 1.027.464 1.826 1.118 2.393 1.966.573.847.854 1.809.854 2.886h-3.792c0-.82-.266-1.463-.799-1.918-.527-.459-1.274-.685-2.234-.685-.93 0-1.65.19-2.161.573-.516.383-.772.887-.772 1.51 0 .586.302 1.074.903 1.47.603.395 1.49.765 2.66 1.11 2.159.633 3.732 1.42 4.716 2.354.985.938 1.479 2.108 1.479 3.508 0 1.553-.6 2.771-1.805 3.655-1.207.883-2.829 1.326-4.868 1.326-1.417 0-2.707-.253-3.871-.76-1.161-.503-2.048-1.197-2.661-2.077-.61-.88-.915-1.9-.915-3.058h3.808c0 1.981 1.21 2.973 3.64 2.973.901 0 1.602-.18 2.108-.54.506-.355.76-.856.76-1.498zm-13.034-3.07H27.14v4.813h8.547v2.97H23.347V35.108h12.315v2.998h-8.523v4.282h7.282v2.898zM5.625 35.108l4.725 13.028 4.703-13.028h4.984v17.961H16.23v-4.91l.38-8.473-4.968 13.383H9.04L4.083 39.698l.378 8.462v4.91H.669V35.107h4.956z"/></g></svg>